<svg fill="#96B2B4" xmlns="http://www.w3.org/2000/svg" xmlns:xlink="http://www.w3.org/1999/xlink" version="1.1" x="0px" y="0px" viewBox="0 0 100 100" style="enable-background:new 0 0 100 100;" xml:space="preserve"><g><path d="M59,36c0-0.6-0.4-1-1-1H33c-0.6,0-1,0.4-1,1s0.4,1,1,1h25C58.6,37,59,36.6,59,36z"></path><path d="M33,30h25c0.6,0,1-0.4,1-1s-0.4-1-1-1H33c-0.6,0-1,0.4-1,1S32.4,30,33,30z"></path><path d="M33,42c-0.6,0-1,0.4-1,1s0.4,1,1,1h15c0.6,0,1-0.4,1-1s-0.4-1-1-1H33z"></path><path d="M76.2,57l-1.3-2.8l0.4-3.1c0.1-0.4-0.1-0.8-0.4-1l-2.6-1.7L71,45.6c-0.2-0.4-0.5-0.6-0.9-0.6H67l0,0V20c0-0.6-0.4-1-1-1H25   c-0.6,0-1,0.4-1,1v49c0,0.6,0.4,1,1,1h28c0.6,0,1-0.4,1-1s-0.4-1-1-1H26V21h39v22.7l-0.6-0.4c-0.3-0.2-0.8-0.2-1.1,0L60.7,45h-3.1   c-0.4,0-0.7,0.2-0.9,0.6l-1.3,2.8l-2.6,1.7c-0.3,0.2-0.5,0.6-0.4,1l0.4,3.1L51.5,57c-0.2,0.4-0.1,0.8,0.2,1.1l2,2.3l0.4,3.1   c0.1,0.4,0.3,0.7,0.7,0.8l2.2,0.6c0,0,0,0.1,0,0.1v14.9c0,0.4,0.2,0.8,0.6,0.9c0.1,0.1,0.3,0.1,0.4,0.1c0.3,0,0.5-0.1,0.7-0.3   l5.2-5.2l5.2,5.2c0.3,0.3,0.7,0.4,1.1,0.2c0.4-0.2,0.6-0.5,0.6-0.9V65c0,0,0-0.1,0-0.1l2.2-0.6c0.4-0.1,0.7-0.4,0.7-0.8l0.4-3.1   l2-2.3C76.3,57.7,76.4,57.3,76.2,57z M64.6,73.4c-0.4-0.4-1-0.4-1.4,0L59,77.5v-11l0.8,1c0.3,0.3,0.7,0.4,1,0.3l2.1-0.6V71   c0,0.6,0.4,1,1,1s1-0.4,1-1v-3.7l1.8,0.5c0.1,0,0.2,0,0.3,0c0.3,0,0.6-0.1,0.8-0.3l0.9-1v11L64.6,73.4z M72.3,59.3   c-0.1,0.1-0.2,0.3-0.2,0.5l-0.4,2.7l-2.6,0.8c-0.2,0.1-0.3,0.2-0.5,0.3l-1.8,2.1l-2.6-0.8c-0.2-0.1-0.4-0.1-0.6,0l-2.6,0.8   l-1.8-2.1c-0.1-0.1-0.3-0.3-0.5-0.3L56,62.5l-0.4-2.7c0-0.2-0.1-0.4-0.2-0.5l-1.8-2.1l1.1-2.5c0.1-0.2,0.1-0.4,0.1-0.6l-0.4-2.7   l2.3-1.5c0.2-0.1,0.3-0.3,0.4-0.4l1.1-2.5H61c0.2,0,0.4-0.1,0.5-0.2l2.3-1.5l2.3,1.5c0.2,0.1,0.3,0.2,0.5,0.2h2.8l1.1,2.5   c0.1,0.2,0.2,0.3,0.4,0.4l2.3,1.5l-0.4,2.7c0,0.2,0,0.4,0.1,0.6l1.1,2.5L72.3,59.3z"></path><path d="M64,50c-3.3,0-6,2.7-6,6s2.7,6,6,6s6-2.7,6-6S67.3,50,64,50z M64,60c-2.2,0-4-1.8-4-4s1.8-4,4-4s4,1.8,4,4S66.2,60,64,60z"></path></g></svg>